<svg id="Layer_1" data-name="Layer 1" xmlns="http://www.w3.org/2000/svg" viewBox="0 0 80 80"><defs><style>.cls-1{fill:none;stroke:#000;stroke-miterlimit:10;stroke-width:3.26px;}</style></defs><path class="cls-1" d="M52.46,37.32a12.57,12.57,0,0,0-1.76-4.23l2-2.68-3.13-3.13-2.68,2a12.75,12.75,0,0,0-4.23-1.75l-.47-3.32H37.79l-.47,3.32a12.75,12.75,0,0,0-4.23,1.75l-2.68-2-3.13,3.13,2,2.68a12.75,12.75,0,0,0-1.75,4.23l-3.32.47v4.42l3.32.47A12.72,12.72,0,0,0,29.3,46.9l-2,2.69,3.13,3.13,2.69-2a12.5,12.5,0,0,0,4.22,1.75l.47,3.33h4.42l.48-3.33A12.53,12.53,0,0,0,46.9,50.7l2.69,2,3.13-3.13-2-2.69a12.72,12.72,0,0,0,1.76-4.22l3.32-.47V37.79Z"/><rect class="cls-1" x="33.13" y="33.13" width="13.74" height="13.74" rx="6.87"/></svg>