<svg id="Layer_1" data-name="Layer 1" xmlns="http://www.w3.org/2000/svg" viewBox="0 0 80 80"><defs><style>.cls-1{fill:none;stroke:#000;stroke-miterlimit:10;stroke-width:3px;}</style></defs><line class="cls-1" x1="36.46" y1="23.92" x2="39.62" y2="23.92"/><line class="cls-1" x1="33.88" y1="36.23" x2="38.4" y2="36.23"/><line class="cls-1" x1="33.88" y1="40.9" x2="38.4" y2="40.9"/><path class="cls-1" d="M47.69,43.57V57a3.78,3.78,0,0,1-3.78,3.78H35.33A3.78,3.78,0,0,1,31.55,57V43.92A1.68,1.68,0,0,1,32,42.74l1.84-1.84-2-2a.51.51,0,0,1,0-.72l2-2L32,34.39a1.69,1.69,0,0,1-.49-1.19V30.31A4.71,4.71,0,0,1,34,26.19l2.48-2.27V19.23h6.32v4.69l2.48,2.27a4.71,4.71,0,0,1,2.43,4.12v3.24a.85.85,0,0,1-.24.59L46,35.64a.83.83,0,0,0,0,1.18L47.1,38a.83.83,0,0,1,0,1.18L46,40.3a.84.84,0,0,0,0,1.19L47.45,43A.87.87,0,0,1,47.69,43.57Z"/></svg>