<svg id="Layer_1" data-name="Layer 1" xmlns="http://www.w3.org/2000/svg" viewBox="0 0 80 80"><defs><style>.cls-1{fill:none;stroke:#000;stroke-miterlimit:10;stroke-width:3px;}</style></defs><path class="cls-1" d="M46.55,35.72l-5.68-9.85a1,1,0,0,0-1.74,0l-5.68,9.85"/><polygon points="48.06 28.16 46.2 35.11 39.25 33.24 41.41 36.98 48.36 38.84 50.22 31.9 48.06 28.16"/><path class="cls-1" d="M44.37,54.63H55.74a1,1,0,0,0,.86-1.5l-5.68-9.85"/><polygon points="50.16 59.72 45.07 54.63 50.16 49.54 45.84 49.54 40.76 54.63 45.84 59.72 50.16 59.72"/><path class="cls-1" d="M29.08,43.28,23.4,53.13a1,1,0,0,0,.86,1.5H35.63"/><polygon points="21.78 45.76 28.73 43.89 30.59 50.84 32.75 47.1 30.89 40.16 23.94 42.02 21.78 45.76"/></svg>